<svg xmlns="http://www.w3.org/2000/svg" xmlns:xlink="http://www.w3.org/1999/xlink" width="612" height="262" version="1.1" viewBox="117 18 612 262"><defs><marker id="sequenceflow-end-white-black" markerHeight="10" markerWidth="10" orient="auto" refX="11" refY="10" viewBox="0 0 20 20"><path d="M 1 5 L 11 10 L 1 15 Z" style="fill:#000;stroke-width:1px;stroke-linecap:round;stroke-dasharray:10000,1;stroke:#000"/></marker></defs><g class="djs-group"><g class="djs-element djs-shape selected" data-element-id="Participant_0s0yicu" transform="translate(123 24)" style="display:block"><g class="djs-visual"><rect width="600" height="250" x="0" y="0" rx="0" ry="0" style="stroke:#000;stroke-width:2px;fill:#fff;fill-opacity:.95"/><polyline points="30 0 30 250" style="fill:none;stroke:#000;stroke-width:2px"/></g><rect width="600" height="250" x="0" y="0" class="djs-hit" style="fill:none;stroke-opacity:0;stroke:#fff;stroke-width:15px"/><rect width="612" height="262" x="-6" y="-6" class="djs-outline" style="fill:none"/></g><g class="djs-children"><g class="djs-group"><g class="djs-element djs-shape" data-element-id="event_start" transform="translate(173 66)" style="display:block"><g class="djs-visual"><circle cx="18" cy="18" r="18" style="stroke:#000;stroke-width:2px;fill:#fff"/></g><rect width="36" height="36" x="0" y="0" class="djs-hit" style="fill:none;stroke-opacity:0;stroke:#fff;stroke-width:15px"/><rect width="48" height="48" x="-6" y="-6" class="djs-outline" style="fill:none"/></g></g><g class="djs-group"><g class="djs-element djs-shape" data-element-id="user_task" transform="translate(261 44)" style="display:block"><g class="djs-visual"><rect width="100" height="80" x="0" y="0" rx="10" ry="10" style="stroke:#000;stroke-width:2px;fill:#fff"/><text class="djs-label" style="font-family:Arial,sans-serif;font-size:12px;fill:#000"><tspan x="22.828" y="43.5">User Task</tspan></text><path d="m 15,12 c 0.909,-0.845 1.594,-2.049 1.594,-3.385 0,-2.554 -1.805,-4.62199999 -4.357,-4.62199999 -2.55199998,0 -4.28799998,2.06799999 -4.28799998,4.62199999 0,1.348 0.974,2.562 1.89599998,3.405 -0.52899998,0.187 -5.669,2.097 -5.794,4.7560005 v 6.718 h 17 v -6.718 c 0,-2.2980005 -5.5279996,-4.5950005 -6.0509996,-4.7760005 zm -8,6 l 0,5.5 m 11,0 l 0,-5" style="fill:#fff;stroke-width:.5px;stroke:#000"/><path d="m 15,12 m 2.162,1.009 c 0,2.4470005 -2.158,4.4310005 -4.821,4.4310005 -2.66499998,0 -4.822,-1.981 -4.822,-4.4310005" style="fill:#fff;stroke-width:.5px;stroke:#000"/><path d="m 15,12 m -6.9,-3.80 c 0,0 2.25099998,-2.358 4.27399998,-1.177 2.024,1.181 4.221,1.537 4.124,0.965 -0.098,-0.57 -0.117,-3.79099999 -4.191,-4.13599999 -3.57499998,0.001 -4.20799998,3.36699999 -4.20699998,4.34799999 z" style="fill:#000;stroke-width:.5px;stroke:#000"/></g><rect width="100" height="80" x="0" y="0" class="djs-hit" style="fill:none;stroke-opacity:0;stroke:#fff;stroke-width:15px"/><rect width="112" height="92" x="-6" y="-6" class="djs-outline" style="fill:none"/></g></g><g class="djs-group"><g class="djs-element djs-shape" data-element-id="event_end" transform="translate(573 66)" style="display:block"><g class="djs-visual"><circle cx="18" cy="18" r="18" style="stroke:#000;stroke-width:4px;fill:#fff"/></g><rect width="36" height="36" x="0" y="0" class="djs-hit" style="fill:none;stroke-opacity:0;stroke:#fff;stroke-width:15px"/><rect width="48" height="48" x="-6" y="-6" class="djs-outline" style="fill:none"/></g></g><g class="djs-group"><g class="djs-element djs-shape" data-element-id="receive_task" transform="translate(417 44)" style="display:block"><g class="djs-visual"><rect width="100" height="80" x="0" y="0" rx="10" ry="10" style="stroke:#000;stroke-width:2px;fill:#fff"/><text class="djs-label" style="font-family:Arial,sans-serif;font-size:12px;fill:#000"><tspan x="13.813" y="43.5">Receive Task</tspan></text><path d="m 6.3,5.6000000000000005 l 0,12.6 l 18.900000000000002,0 l 0,-12.6 z l 9.450000000000001,5.4 l 9.450000000000001,-5.4" style="fill:#fff;stroke-width:1px;stroke:#000"/></g><rect width="100" height="80" x="0" y="0" class="djs-hit" style="fill:none;stroke-opacity:0;stroke:#fff;stroke-width:15px"/><rect width="112" height="92" x="-6" y="-6" class="djs-outline" style="fill:none"/></g></g><g class="djs-group"><g class="djs-element djs-shape" data-element-id="task_2" transform="translate(391 171)" style="display:block"><g class="djs-visual"><rect width="100" height="80" x="0" y="0" rx="10" ry="10" style="stroke:#000;stroke-width:2px;fill:#fff"/><text class="djs-label" style="font-family:Arial,sans-serif;font-size:12px;fill:#000"><tspan x="7.477" y="43.5">Issue Reminder</tspan></text><path d="m 15,20 c 9.966553,-6.27276 -8.000926,-7.91932 2.968968,-14.938 l -8.802728,0 c -10.969894,7.01868 6.997585,8.66524 -2.968967,14.938 z m -7,-12 l 5,0 m -4.5,3 l 4.5,0 m -3,3 l 5,0m -4,3 l 5,0" style="fill:none;stroke-width:1px;stroke:#000"/></g><rect width="100" height="80" x="0" y="0" class="djs-hit" style="fill:none;stroke-opacity:0;stroke:#fff;stroke-width:15px"/><rect width="112" height="92" x="-6" y="-6" class="djs-outline" style="fill:none"/></g></g><g class="djs-group"><g class="djs-element djs-shape" data-element-id="event_start_label" transform="translate(180 109)" style="display:block"><g class="djs-visual"><text class="djs-label" style="font-family:Arial,sans-serif;font-size:11px"><tspan x="0" y="12">Start</tspan></text></g><rect width="25" height="12" x="0" y="0" class="djs-hit" style="fill:none;stroke-opacity:0;stroke:#fff;stroke-width:15px"/><rect width="37" height="24" x="-6" y="-6" class="djs-outline" style="fill:none"/></g></g><g class="djs-group"><g class="djs-element djs-shape" data-element-id="event_end_label" transform="translate(582 109)" style="display:block"><g class="djs-visual"><text class="djs-label" style="font-family:Arial,sans-serif;font-size:11px"><tspan x="0" y="12">End</tspan></text></g><rect width="20" height="12" x="0" y="0" class="djs-hit" style="fill:none;stroke-opacity:0;stroke:#fff;stroke-width:15px"/><rect width="32" height="24" x="-6" y="-6" class="djs-outline" style="fill:none"/></g></g><g class="djs-group"><g class="djs-element djs-connection" data-element-id="flow_start_user" style="display:block"><g class="djs-visual"><path d="m 209,84L261,84" style="fill:none;stroke-width:2px;stroke:#000;stroke-linejoin:round;marker-end:url(#sequenceflow-end-white-black)"/></g><polyline points="209 84 261 84" class="djs-hit" style="fill:none;stroke-opacity:0;stroke:#fff;stroke-width:15px"/><rect width="64" height="12" x="203" y="78" class="djs-outline" style="fill:none"/></g></g><g class="djs-group"><g class="djs-element djs-connection" data-element-id="flow_user_receive" style="display:block"><g class="djs-visual"><path d="m 361,84L417,84" style="fill:none;stroke-width:2px;stroke:#000;stroke-linejoin:round;marker-end:url(#sequenceflow-end-white-black)"/></g><polyline points="361 84 417 84" class="djs-hit" style="fill:none;stroke-opacity:0;stroke:#fff;stroke-width:15px"/><rect width="68" height="12" x="355" y="78" class="djs-outline" style="fill:none"/></g></g><g class="djs-group"><g class="djs-element djs-connection" data-element-id="flow_receive_end" style="display:block"><g class="djs-visual"><path d="m 517,84L573,84" style="fill:none;stroke-width:2px;stroke:#000;stroke-linejoin:round;marker-end:url(#sequenceflow-end-white-black)"/></g><polyline points="517 84 573 84" class="djs-hit" style="fill:none;stroke-opacity:0;stroke:#fff;stroke-width:15px"/><rect width="68" height="12" x="511" y="78" class="djs-outline" style="fill:none"/></g></g><g class="djs-group"><g class="djs-element djs-connection" data-element-id="flow_boundary_task2" style="display:block"><g class="djs-visual"><path d="m 334,140L334,211 L391,211" style="fill:none;stroke-width:2px;stroke:#000;stroke-linejoin:round;marker-end:url(#sequenceflow-end-white-black)"/></g><polyline points="334 140 334 211 391 211" class="djs-hit" style="fill:none;stroke-opacity:0;stroke:#fff;stroke-width:15px"/><rect width="69" height="83" x="328" y="134" class="djs-outline" style="fill:none"/></g></g><g class="djs-group"><g class="djs-element djs-shape" data-element-id="BoundaryEvent_timer" transform="translate(316 104)" style="display:block"><g class="djs-visual"><circle cx="18" cy="18" r="18" style="stroke:#000;stroke-width:1px;fill:#fff;stroke-dasharray:6;stroke-linecap:round"/><circle cx="18" cy="18" r="15" style="stroke:#000;stroke-width:1px;fill:none;stroke-dasharray:6;stroke-linecap:round"/><circle cx="18" cy="18" r="11" style="stroke:#000;stroke-width:2px;fill:#fff"/><path d="M 18,18 l 2.25,-7.5 m -2.25,7.5 l 5.25,1.5" style="fill:none;stroke-width:2px;stroke:#000;stroke-linecap:square"/><path d="M 18,18 m 0,7.5 l -0,2.25" transform="rotate(0,18,18)" style="fill:none;stroke-width:1px;stroke:#000;stroke-linecap:square"/><path d="M 18,18 m 0,7.5 l -0,2.25" transform="rotate(30,18,18)" style="fill:none;stroke-width:1px;stroke:#000;stroke-linecap:square"/><path d="M 18,18 m 0,7.5 l -0,2.25" transform="rotate(60,18,18)" style="fill:none;stroke-width:1px;stroke:#000;stroke-linecap:square"/><path d="M 18,18 m 0,7.5 l -0,2.25" transform="rotate(90,18,18)" style="fill:none;stroke-width:1px;stroke:#000;stroke-linecap:square"/><path d="M 18,18 m 0,7.5 l -0,2.25" transform="rotate(120,18,18)" style="fill:none;stroke-width:1px;stroke:#000;stroke-linecap:square"/><path d="M 18,18 m 0,7.5 l -0,2.25" transform="rotate(150,18,18)" style="fill:none;stroke-width:1px;stroke:#000;stroke-linecap:square"/><path d="M 18,18 m 0,7.5 l -0,2.25" transform="rotate(180,18,18)" style="fill:none;stroke-width:1px;stroke:#000;stroke-linecap:square"/><path d="M 18,18 m 0,7.5 l -0,2.25" transform="rotate(210,18,18)" style="fill:none;stroke-width:1px;stroke:#000;stroke-linecap:square"/><path d="M 18,18 m 0,7.5 l -0,2.25" transform="rotate(240,18,18)" style="fill:none;stroke-width:1px;stroke:#000;stroke-linecap:square"/><path d="M 18,18 m 0,7.5 l -0,2.25" transform="rotate(270,18,18)" style="fill:none;stroke-width:1px;stroke:#000;stroke-linecap:square"/><path d="M 18,18 m 0,7.5 l -0,2.25" transform="rotate(300,18,18)" style="fill:none;stroke-width:1px;stroke:#000;stroke-linecap:square"/><path d="M 18,18 m 0,7.5 l -0,2.25" transform="rotate(330,18,18)" style="fill:none;stroke-width:1px;stroke:#000;stroke-linecap:square"/></g><rect width="36" height="36" x="0" y="0" class="djs-hit" style="fill:none;stroke-opacity:0;stroke:#fff;stroke-width:15px"/><rect width="48" height="48" x="-6" y="-6" class="djs-outline" style="fill:none"/></g></g><g class="djs-group"><g class="djs-element djs-shape" data-element-id="BoundaryEvent_timer_label" transform="translate(244 143)" style="display:none"><rect width="90" height="13" x="0" y="0" class="djs-hit" style="fill:none;stroke-opacity:0;stroke:#fff;stroke-width:15px"/><rect width="102" height="25" x="-6" y="-6" class="djs-outline" style="fill:none"/></g></g><g class="djs-group"><g class="djs-element djs-shape" data-element-id="BoundaryEvent_message" transform="translate(274 106)" style="display:block"><g class="djs-visual"><circle cx="18" cy="18" r="18" style="stroke:#000;stroke-width:1px;fill:#fff;stroke-dasharray:6;stroke-linecap:round"/><circle cx="18" cy="18" r="15" style="stroke:#000;stroke-width:1px;fill:none;stroke-dasharray:6;stroke-linecap:round"/><path d="m 8.459999999999999,11.34 l 0,12.6 l 18.900000000000002,0 l 0,-12.6 z l 9.450000000000001,5.4 l 9.450000000000001,-5.4" style="fill:#fff;stroke-width:1px;stroke:#000"/></g><rect width="36" height="36" x="0" y="0" class="djs-hit" style="fill:none;stroke-opacity:0;stroke:#fff;stroke-width:15px"/><rect width="48" height="48" x="-6" y="-6" class="djs-outline" style="fill:none"/></g></g><g class="djs-group"><g class="djs-element djs-shape" data-element-id="BoundaryEvent_message_label" transform="translate(247 145)" style="display:none"><rect width="90" height="13" x="0" y="0" class="djs-hit" style="fill:none;stroke-opacity:0;stroke:#fff;stroke-width:15px"/><rect width="102" height="25" x="-6" y="-6" class="djs-outline" style="fill:none"/></g></g><g class="djs-group"><g class="djs-element djs-shape" data-element-id="flow_start_user_label" transform="translate(190 59)" style="display:none"><rect width="90" height="20" x="0" y="0" class="djs-hit" style="fill:none;stroke-opacity:0;stroke:#fff;stroke-width:15px"/><rect width="102" height="32" x="-6" y="-6" class="djs-outline" style="fill:none"/></g></g><g class="djs-group"><g class="djs-element djs-shape" data-element-id="flow_user_receive_label" transform="translate(344 59)" style="display:none"><rect width="90" height="20" x="0" y="0" class="djs-hit" style="fill:none;stroke-opacity:0;stroke:#fff;stroke-width:15px"/><rect width="102" height="32" x="-6" y="-6" class="djs-outline" style="fill:none"/></g></g><g class="djs-group"><g class="djs-element djs-shape" data-element-id="flow_receive_end_label" transform="translate(500 59)" style="display:none"><rect width="90" height="20" x="0" y="0" class="djs-hit" style="fill:none;stroke-opacity:0;stroke:#fff;stroke-width:15px"/><rect width="102" height="32" x="-6" y="-6" class="djs-outline" style="fill:none"/></g></g><g class="djs-group"><g class="djs-element djs-shape" data-element-id="flow_boundary_task2_label" transform="translate(304 169)" style="display:none"><rect width="90" height="13" x="0" y="0" class="djs-hit" style="fill:none;stroke-opacity:0;stroke:#fff;stroke-width:15px"/><rect width="102" height="25" x="-6" y="-6" class="djs-outline" style="fill:none"/></g></g></g></g></svg>