<svg xmlns="http://www.w3.org/2000/svg" xmlns:xlink="http://www.w3.org/1999/xlink" width="515" height="195" version="1.1" viewBox="118 18 515 195"><defs><marker id="sequenceflow-end-white-black" markerHeight="10" markerWidth="10" orient="auto" refX="11" refY="10" viewBox="0 0 20 20"><path d="M 1 5 L 11 10 L 1 15 Z" style="fill:#000;stroke-width:1px;stroke-linecap:round;stroke-dasharray:10000,1;stroke:#000"/></marker></defs><g class="djs-group"><g class="djs-element djs-shape selected hover" data-element-id="Participant_16pif1h" transform="translate(124 24)" style="display:block"><g class="djs-visual"><rect width="503" height="183" x="0" y="0" rx="0" ry="0" style="stroke:#000;stroke-width:2px;fill:#fff;fill-opacity:.95"/><polyline points="30 0 30 183" style="fill:none;stroke:#000;stroke-width:2px"/></g><rect width="503" height="183" x="0" y="0" class="djs-hit" style="fill:none;stroke-opacity:0;stroke:#fff;stroke-width:15px"/><rect width="515" height="195" x="-6" y="-6" class="djs-outline" style="fill:none"/></g><g class="djs-children"><g class="djs-group"><g class="djs-element djs-shape" data-element-id="EndEvent_016qedv" transform="translate(562 91)" style="display:block"><g class="djs-visual"><circle cx="18" cy="18" r="18" style="stroke:#000;stroke-width:4px;fill:#fff"/></g><rect width="36" height="36" x="0" y="0" class="djs-hit" style="fill:none;stroke-opacity:0;stroke:#fff;stroke-width:15px"/><rect width="48" height="48" x="-6" y="-6" class="djs-outline" style="fill:none"/></g></g><g class="djs-group"><g class="djs-element djs-shape" data-element-id="event_catch_confirm2" transform="translate(496 91)" style="display:block"><g class="djs-visual"><circle cx="18" cy="18" r="18" style="stroke:#000;stroke-width:1px;fill:#fff"/><circle cx="18" cy="18" r="15" style="stroke:#000;stroke-width:1px;fill:none"/><path d="m 8.459999999999999,11.34 l 0,12.6 l 18.900000000000002,0 l 0,-12.6 z l 9.450000000000001,5.4 l 9.450000000000001,-5.4" style="fill:#fff;stroke-width:1px;stroke:#000"/></g><rect width="36" height="36" x="0" y="0" class="djs-hit" style="fill:none;stroke-opacity:0;stroke:#fff;stroke-width:15px"/><rect width="48" height="48" x="-6" y="-6" class="djs-outline" style="fill:none"/></g></g><g class="djs-group"><g class="djs-element djs-shape" data-element-id="throw_msg1" transform="translate(248 91)" style="display:block"><g class="djs-visual"><circle cx="18" cy="18" r="18" style="stroke:#000;stroke-width:1px;fill:#fff"/><circle cx="18" cy="18" r="15" style="stroke:#000;stroke-width:1px;fill:none"/><path d="m 8.459999999999999,11.34 l 0,12.6 l 18.900000000000002,0 l 0,-12.6 z l 9.450000000000001,5.4 l 9.450000000000001,-5.4" style="fill:#000;stroke-width:1px;stroke:#fff"/></g><rect width="36" height="36" x="0" y="0" class="djs-hit" style="fill:none;stroke-opacity:0;stroke:#fff;stroke-width:15px"/><rect width="48" height="48" x="-6" y="-6" class="djs-outline" style="fill:none"/></g></g><g class="djs-group"><g class="djs-element djs-shape" data-element-id="event_throw_msg2" transform="translate(397 91)" style="display:block"><g class="djs-visual"><circle cx="18" cy="18" r="18" style="stroke:#000;stroke-width:1px;fill:#fff"/><circle cx="18" cy="18" r="15" style="stroke:#000;stroke-width:1px;fill:none"/><path d="m 8.459999999999999,11.34 l 0,12.6 l 18.900000000000002,0 l 0,-12.6 z l 9.450000000000001,5.4 l 9.450000000000001,-5.4" style="fill:#000;stroke-width:1px;stroke:#fff"/></g><rect width="36" height="36" x="0" y="0" class="djs-hit" style="fill:none;stroke-opacity:0;stroke:#fff;stroke-width:15px"/><rect width="48" height="48" x="-6" y="-6" class="djs-outline" style="fill:none"/></g></g><g class="djs-group"><g class="djs-element djs-shape" data-element-id="catch_confirm1" transform="translate(318 91)" style="display:block"><g class="djs-visual"><circle cx="18" cy="18" r="18" style="stroke:#000;stroke-width:1px;fill:#fff"/><circle cx="18" cy="18" r="15" style="stroke:#000;stroke-width:1px;fill:none"/><path d="m 8.459999999999999,11.34 l 0,12.6 l 18.900000000000002,0 l 0,-12.6 z l 9.450000000000001,5.4 l 9.450000000000001,-5.4" style="fill:#fff;stroke-width:1px;stroke:#000"/></g><rect width="36" height="36" x="0" y="0" class="djs-hit" style="fill:none;stroke-opacity:0;stroke:#fff;stroke-width:15px"/><rect width="48" height="48" x="-6" y="-6" class="djs-outline" style="fill:none"/></g></g><g class="djs-group"><g class="djs-element djs-shape" data-element-id="StartEvent_1" transform="translate(174 91)" style="display:block"><g class="djs-visual"><circle cx="18" cy="18" r="18" style="stroke:#000;stroke-width:2px;fill:#fff"/></g><rect width="36" height="36" x="0" y="0" class="djs-hit" style="fill:none;stroke-opacity:0;stroke:#fff;stroke-width:15px"/><rect width="48" height="48" x="-6" y="-6" class="djs-outline" style="fill:none"/></g></g><g class="djs-group"><g class="djs-element djs-shape" data-element-id="EndEvent_016qedv_label" transform="translate(535 131)" style="display:none"><rect width="90" height="12" x="0" y="0" class="djs-hit" style="fill:none;stroke-opacity:0;stroke:#fff;stroke-width:15px"/><rect width="102" height="24" x="-6" y="-6" class="djs-outline" style="fill:none"/></g></g><g class="djs-group"><g class="djs-element djs-shape" data-element-id="event_catch_confirm2_label" transform="translate(474 131)" style="display:block"><g class="djs-visual"><text class="djs-label" style="font-family:Arial,sans-serif;font-size:11px"><tspan x="0" y="12">receive confirm2</tspan></text></g><rect width="81" height="12" x="0" y="0" class="djs-hit" style="fill:none;stroke-opacity:0;stroke:#fff;stroke-width:15px"/><rect width="93" height="24" x="-6" y="-6" class="djs-outline" style="fill:none"/></g></g><g class="djs-group"><g class="djs-element djs-shape" data-element-id="throw_msg1_label" transform="translate(253 131)" style="display:block"><g class="djs-visual"><text class="djs-label" style="font-family:Arial,sans-serif;font-size:11px"><tspan x="0" y="12">msg1</tspan></text></g><rect width="27" height="12" x="0" y="0" class="djs-hit" style="fill:none;stroke-opacity:0;stroke:#fff;stroke-width:15px"/><rect width="39" height="24" x="-6" y="-6" class="djs-outline" style="fill:none"/></g></g><g class="djs-group"><g class="djs-element djs-shape" data-element-id="event_throw_msg2_label" transform="translate(388 131)" style="display:block"><g class="djs-visual"><text class="djs-label" style="font-family:Arial,sans-serif;font-size:11px"><tspan x="0" y="12">send msg2</tspan></text></g><rect width="54" height="12" x="0" y="0" class="djs-hit" style="fill:none;stroke-opacity:0;stroke:#fff;stroke-width:15px"/><rect width="66" height="24" x="-6" y="-6" class="djs-outline" style="fill:none"/></g></g><g class="djs-group"><g class="djs-element djs-shape" data-element-id="catch_confirm1_label" transform="translate(296 131)" style="display:block"><g class="djs-visual"><text class="djs-label" style="font-family:Arial,sans-serif;font-size:11px"><tspan x="0" y="12">receive confirm1</tspan></text></g><rect width="81" height="12" x="0" y="0" class="djs-hit" style="fill:none;stroke-opacity:0;stroke:#fff;stroke-width:15px"/><rect width="93" height="24" x="-6" y="-6" class="djs-outline" style="fill:none"/></g></g><g class="djs-group"><g class="djs-element djs-shape" data-element-id="SequenceFlow_0bi5abv_label" transform="translate(502 88)" style="display:none"><rect width="90" height="12" x="0" y="0" class="djs-hit" style="fill:none;stroke-opacity:0;stroke:#fff;stroke-width:15px"/><rect width="102" height="24" x="-6" y="-6" class="djs-outline" style="fill:none"/></g></g><g class="djs-group"><g class="djs-element djs-shape" data-element-id="SequenceFlow_0011qnj_label" transform="translate(420 88)" style="display:none"><rect width="90" height="12" x="0" y="0" class="djs-hit" style="fill:none;stroke-opacity:0;stroke:#fff;stroke-width:15px"/><rect width="102" height="24" x="-6" y="-6" class="djs-outline" style="fill:none"/></g></g><g class="djs-group"><g class="djs-element djs-shape" data-element-id="SequenceFlow_0v5dt2n_label" transform="translate(256 88)" style="display:none"><rect width="90" height="12" x="0" y="0" class="djs-hit" style="fill:none;stroke-opacity:0;stroke:#fff;stroke-width:15px"/><rect width="102" height="24" x="-6" y="-6" class="djs-outline" style="fill:none"/></g></g><g class="djs-group"><g class="djs-element djs-shape" data-element-id="SequenceFlow_0t3k59u_label" transform="translate(331 88)" style="display:none"><rect width="90" height="12" x="0" y="0" class="djs-hit" style="fill:none;stroke-opacity:0;stroke:#fff;stroke-width:15px"/><rect width="102" height="24" x="-6" y="-6" class="djs-outline" style="fill:none"/></g></g><g class="djs-group"><g class="djs-element djs-shape" data-element-id="SequenceFlow_0eersm2_label" transform="translate(184 88)" style="display:none"><rect width="90" height="12" x="0" y="0" class="djs-hit" style="fill:none;stroke-opacity:0;stroke:#fff;stroke-width:15px"/><rect width="102" height="24" x="-6" y="-6" class="djs-outline" style="fill:none"/></g></g><g class="djs-group"><g class="djs-element djs-shape" data-element-id="StartEvent_1_label" transform="translate(147 127)" style="display:none"><rect width="90" height="20" x="0" y="0" class="djs-hit" style="fill:none;stroke-opacity:0;stroke:#fff;stroke-width:15px"/><rect width="102" height="32" x="-6" y="-6" class="djs-outline" style="fill:none"/></g></g><g class="djs-group"><g class="djs-element djs-connection" data-element-id="SequenceFlow_0bi5abv" style="display:block"><g class="djs-visual"><path d="m 532,109L562,109" style="fill:none;stroke-width:2px;stroke:#000;stroke-linejoin:round;marker-end:url(#sequenceflow-end-white-black)"/></g><polyline points="532 109 562 109" class="djs-hit" style="fill:none;stroke-opacity:0;stroke:#fff;stroke-width:15px"/><rect width="42" height="12" x="526" y="103" class="djs-outline" style="fill:none"/></g></g><g class="djs-group"><g class="djs-element djs-connection" data-element-id="SequenceFlow_0011qnj" style="display:block"><g class="djs-visual"><path d="m 433,109L496,109" style="fill:none;stroke-width:2px;stroke:#000;stroke-linejoin:round;marker-end:url(#sequenceflow-end-white-black)"/></g><polyline points="433 109 496 109" class="djs-hit" style="fill:none;stroke-opacity:0;stroke:#fff;stroke-width:15px"/><rect width="75" height="12" x="427" y="103" class="djs-outline" style="fill:none"/></g></g><g class="djs-group"><g class="djs-element djs-connection" data-element-id="SequenceFlow_0eersm2" style="display:block"><g class="djs-visual"><path d="m 210,109L248,109" style="fill:none;stroke-width:2px;stroke:#000;stroke-linejoin:round;marker-end:url(#sequenceflow-end-white-black)"/></g><polyline points="210 109 248 109" class="djs-hit" style="fill:none;stroke-opacity:0;stroke:#fff;stroke-width:15px"/><rect width="50" height="12" x="204" y="103" class="djs-outline" style="fill:none"/></g></g><g class="djs-group"><g class="djs-element djs-connection" data-element-id="SequenceFlow_0v5dt2n" style="display:block"><g class="djs-visual"><path d="m 284,109L318,109" style="fill:none;stroke-width:2px;stroke:#000;stroke-linejoin:round;marker-end:url(#sequenceflow-end-white-black)"/></g><polyline points="284 109 318 109" class="djs-hit" style="fill:none;stroke-opacity:0;stroke:#fff;stroke-width:15px"/><rect width="46" height="12" x="278" y="103" class="djs-outline" style="fill:none"/></g></g><g class="djs-group"><g class="djs-element djs-connection" data-element-id="SequenceFlow_0t3k59u" style="display:block"><g class="djs-visual"><path d="m 354,109L397,109" style="fill:none;stroke-width:2px;stroke:#000;stroke-linejoin:round;marker-end:url(#sequenceflow-end-white-black)"/></g><polyline points="354 109 397 109" class="djs-hit" style="fill:none;stroke-opacity:0;stroke:#fff;stroke-width:15px"/><rect width="55" height="12" x="348" y="103" class="djs-outline" style="fill:none"/></g></g></g></g></svg>