<svg xmlns="http://www.w3.org/2000/svg" xmlns:xlink="http://www.w3.org/1999/xlink" width="753" height="308" version="1.1" viewBox="134 8 753 308"><defs><marker id="sequenceflow-end-white-black" markerHeight="10" markerWidth="10" orient="auto" refX="11" refY="10" viewBox="0 0 20 20"><path d="M 1 5 L 11 10 L 1 15 Z" style="fill:#000;stroke-width:1px;stroke-linecap:round;stroke-dasharray:10000,1;stroke:#000"/></marker></defs><g class="djs-group"><g class="djs-element djs-shape selected" data-element-id="Participant_1g6enp2" transform="translate(140 14)" style="display:block"><g class="djs-visual"><rect width="741" height="296" x="0" y="0" rx="0" ry="0" style="stroke:#000;stroke-width:2px;fill:#fff;fill-opacity:.95"/><polyline points="30 0 30 296" style="fill:none;stroke:#000;stroke-width:2px"/></g><rect width="741" height="296" x="0" y="0" class="djs-hit" style="fill:none;stroke-opacity:0;stroke:#fff;stroke-width:15px"/><rect width="753" height="308" x="-6" y="-6" class="djs-outline" style="fill:none"/></g><g class="djs-children"><g class="djs-group"><g class="djs-element djs-shape" data-element-id="StartEvent_0wntki2" transform="translate(178 152)" style="display:block"><g class="djs-visual"><circle cx="18" cy="18" r="18" style="stroke:#000;stroke-width:2px;fill:#fff"/></g><rect width="36" height="36" x="0" y="0" class="djs-hit" style="fill:none;stroke-opacity:0;stroke:#fff;stroke-width:15px"/><rect width="48" height="48" x="-6" y="-6" class="djs-outline" style="fill:none"/></g></g><g class="djs-group"><g class="djs-element djs-shape" data-element-id="EndEvent_08zhy2j" transform="translate(817 152)" style="display:block"><g class="djs-visual"><circle cx="18" cy="18" r="18" style="stroke:#000;stroke-width:4px;fill:#fff"/></g><rect width="36" height="36" x="0" y="0" class="djs-hit" style="fill:none;stroke-opacity:0;stroke:#fff;stroke-width:15px"/><rect width="48" height="48" x="-6" y="-6" class="djs-outline" style="fill:none"/></g></g><g class="djs-group"><g class="djs-element djs-shape" data-element-id="Task_1acrm1f" transform="translate(244 130)" style="display:block"><g class="djs-visual"><rect width="100" height="80" x="0" y="0" rx="10" ry="10" style="stroke:#000;stroke-width:2px;fill:#fff"/><text class="djs-label" style="font-family:Arial,sans-serif;font-size:12px;fill:#000"><tspan x="31.156" y="36.5">Design </tspan><tspan x="22.484" y="50.5">Campaign</tspan></text><path d="m 15,12 c 0.909,-0.845 1.594,-2.049 1.594,-3.385 0,-2.554 -1.805,-4.62199999 -4.357,-4.62199999 -2.55199998,0 -4.28799998,2.06799999 -4.28799998,4.62199999 0,1.348 0.974,2.562 1.89599998,3.405 -0.52899998,0.187 -5.669,2.097 -5.794,4.7560005 v 6.718 h 17 v -6.718 c 0,-2.2980005 -5.5279996,-4.5950005 -6.0509996,-4.7760005 zm -8,6 l 0,5.5 m 11,0 l 0,-5" style="fill:#fff;stroke-width:.5px;stroke:#000"/><path d="m 15,12 m 2.162,1.009 c 0,2.4470005 -2.158,4.4310005 -4.821,4.4310005 -2.66499998,0 -4.822,-1.981 -4.822,-4.4310005" style="fill:#fff;stroke-width:.5px;stroke:#000"/><path d="m 15,12 m -6.9,-3.80 c 0,0 2.25099998,-2.358 4.27399998,-1.177 2.024,1.181 4.221,1.537 4.124,0.965 -0.098,-0.57 -0.117,-3.79099999 -4.191,-4.13599999 -3.57499998,0.001 -4.20799998,3.36699999 -4.20699998,4.34799999 z" style="fill:#000;stroke-width:.5px;stroke:#000"/></g><rect width="100" height="80" x="0" y="0" class="djs-hit" style="fill:none;stroke-opacity:0;stroke:#fff;stroke-width:15px"/><rect width="112" height="92" x="-6" y="-6" class="djs-outline" style="fill:none"/></g></g><g class="djs-group"><g class="djs-element djs-shape" data-element-id="StartEvent_0wntki2_label" transform="translate(151 192)" style="display:none"><rect width="90" height="12" x="0" y="0" class="djs-hit" style="fill:none;stroke-opacity:0;stroke:#fff;stroke-width:15px"/><rect width="102" height="24" x="-6" y="-6" class="djs-outline" style="fill:none"/></g></g><g class="djs-group"><g class="djs-element djs-connection" data-element-id="SequenceFlow_129vlnl" style="display:block"><g class="djs-visual"><path d="m 214,170L244,170" style="fill:none;stroke-width:2px;stroke:#000;stroke-linejoin:round;marker-end:url(#sequenceflow-end-white-black)"/></g><polyline points="214 170 244 170" class="djs-hit" style="fill:none;stroke-opacity:0;stroke:#fff;stroke-width:15px"/><rect width="42" height="12" x="208" y="164" class="djs-outline" style="fill:none"/></g></g><g class="djs-group"><g class="djs-element djs-connection" data-element-id="SequenceFlow_0664zm3" style="display:block"><g class="djs-visual"><path d="m 344,170L367,170" style="fill:none;stroke-width:2px;stroke:#000;stroke-linejoin:round;marker-end:url(#sequenceflow-end-white-black)"/></g><polyline points="344 170 367 170" class="djs-hit" style="fill:none;stroke-opacity:0;stroke:#fff;stroke-width:15px"/><rect width="35" height="12" x="338" y="164" class="djs-outline" style="fill:none"/></g></g><g class="djs-group"><g class="djs-element djs-connection" data-element-id="SequenceFlow_1h2726a" style="display:block"><g class="djs-visual"><path d="m 785,170L817,170" style="fill:none;stroke-width:2px;stroke:#000;stroke-linejoin:round;marker-end:url(#sequenceflow-end-white-black)"/></g><polyline points="785 170 817 170" class="djs-hit" style="fill:none;stroke-opacity:0;stroke:#fff;stroke-width:15px"/><rect width="44" height="12" x="779" y="164" class="djs-outline" style="fill:none"/></g></g><g class="djs-group"><g class="djs-element djs-shape" data-element-id="task_subProcess" transform="translate(367 75)" style="display:block"><g class="djs-visual"><rect width="418" height="189" x="0" y="0" rx="10" ry="10" style="stroke:#000;stroke-width:2px;fill:#fff;fill-opacity:.95"/></g><rect width="418" height="189" x="0" y="0" class="djs-hit" style="fill:none;stroke-opacity:0;stroke:#fff;stroke-width:15px"/><rect width="430" height="201" x="-6" y="-6" class="djs-outline" style="fill:none"/></g><g class="djs-children"><g class="djs-group"><g class="djs-element djs-shape" data-element-id="sub_StartEvent" transform="translate(392 162)" style="display:block"><g class="djs-visual"><circle cx="18" cy="18" r="18" style="stroke:#000;stroke-width:2px;fill:#fff"/></g><rect width="36" height="36" x="0" y="0" class="djs-hit" style="fill:none;stroke-opacity:0;stroke:#fff;stroke-width:15px"/><rect width="48" height="48" x="-6" y="-6" class="djs-outline" style="fill:none"/></g></g><g class="djs-group"><g class="djs-element djs-shape" data-element-id="sub_endEvent" transform="translate(729 162)" style="display:block"><g class="djs-visual"><circle cx="18" cy="18" r="18" style="stroke:#000;stroke-width:4px;fill:#fff"/></g><rect width="36" height="36" x="0" y="0" class="djs-hit" style="fill:none;stroke-opacity:0;stroke:#fff;stroke-width:15px"/><rect width="48" height="48" x="-6" y="-6" class="djs-outline" style="fill:none"/></g></g><g class="djs-group"><g class="djs-element djs-shape" data-element-id="sub_task_1" transform="translate(462 140)" style="display:block"><g class="djs-visual"><rect width="100" height="80" x="0" y="0" rx="10" ry="10" style="stroke:#000;stroke-width:2px;fill:#fff"/><text class="djs-label" style="font-family:Arial,sans-serif;font-size:12px;fill:#000"><tspan x="9.477" y="36.5">Send Emails to </tspan><tspan x="31.656" y="50.5">Clients</tspan></text><path d="m44,60 m 3,2 l 0,10 m 3,-10 l 0,10 m 3,-10 l 0,10" data-marker="parallel" style="fill:none;stroke-width:2px;stroke:#000"/><path d="m 15,20 c 9.966553,-6.27276 -8.000926,-7.91932 2.968968,-14.938 l -8.802728,0 c -10.969894,7.01868 6.997585,8.66524 -2.968967,14.938 z m -7,-12 l 5,0 m -4.5,3 l 4.5,0 m -3,3 l 5,0m -4,3 l 5,0" style="fill:none;stroke-width:1px;stroke:#000"/></g><rect width="100" height="80" x="0" y="0" class="djs-hit" style="fill:none;stroke-opacity:0;stroke:#fff;stroke-width:15px"/><rect width="112" height="92" x="-6" y="-6" class="djs-outline" style="fill:none"/></g></g><g class="djs-group"><g class="djs-element djs-shape" data-element-id="sub_usertask_2" transform="translate(594 140)" style="display:block"><g class="djs-visual"><rect width="100" height="80" x="0" y="0" rx="10" ry="10" style="stroke:#000;stroke-width:2px;fill:#fff"/><text class="djs-label" style="font-family:Arial,sans-serif;font-size:12px;fill:#000"><tspan x="11.484" y="36.5">Follow-up with </tspan><tspan x="31.656" y="50.5">Clients</tspan></text><path d="m 15,12 c 0.909,-0.845 1.594,-2.049 1.594,-3.385 0,-2.554 -1.805,-4.62199999 -4.357,-4.62199999 -2.55199998,0 -4.28799998,2.06799999 -4.28799998,4.62199999 0,1.348 0.974,2.562 1.89599998,3.405 -0.52899998,0.187 -5.669,2.097 -5.794,4.7560005 v 6.718 h 17 v -6.718 c 0,-2.2980005 -5.5279996,-4.5950005 -6.0509996,-4.7760005 zm -8,6 l 0,5.5 m 11,0 l 0,-5" style="fill:#fff;stroke-width:.5px;stroke:#000"/><path d="m 15,12 m 2.162,1.009 c 0,2.4470005 -2.158,4.4310005 -4.821,4.4310005 -2.66499998,0 -4.822,-1.981 -4.822,-4.4310005" style="fill:#fff;stroke-width:.5px;stroke:#000"/><path d="m 15,12 m -6.9,-3.80 c 0,0 2.25099998,-2.358 4.27399998,-1.177 2.024,1.181 4.221,1.537 4.124,0.965 -0.098,-0.57 -0.117,-3.79099999 -4.191,-4.13599999 -3.57499998,0.001 -4.20799998,3.36699999 -4.20699998,4.34799999 z" style="fill:#000;stroke-width:.5px;stroke:#000"/></g><rect width="100" height="80" x="0" y="0" class="djs-hit" style="fill:none;stroke-opacity:0;stroke:#fff;stroke-width:15px"/><rect width="112" height="92" x="-6" y="-6" class="djs-outline" style="fill:none"/></g></g><g class="djs-group"><g class="djs-element djs-shape" data-element-id="sub_StartEvent_label" transform="translate(365 202)" style="display:none"><rect width="90" height="12" x="0" y="0" class="djs-hit" style="fill:none;stroke-opacity:0;stroke:#fff;stroke-width:15px"/><rect width="102" height="24" x="-6" y="-6" class="djs-outline" style="fill:none"/></g></g><g class="djs-group"><g class="djs-element djs-shape" data-element-id="sub_endEvent_label" transform="translate(702 202)" style="display:none"><rect width="90" height="12" x="0" y="0" class="djs-hit" style="fill:none;stroke-opacity:0;stroke:#fff;stroke-width:15px"/><rect width="102" height="24" x="-6" y="-6" class="djs-outline" style="fill:none"/></g></g><g class="djs-group"><g class="djs-element djs-shape" data-element-id="SequenceFlow_1811kcu_label" transform="translate(533 159)" style="display:none"><rect width="90" height="12" x="0" y="0" class="djs-hit" style="fill:none;stroke-opacity:0;stroke:#fff;stroke-width:15px"/><rect width="102" height="24" x="-6" y="-6" class="djs-outline" style="fill:none"/></g></g><g class="djs-group"><g class="djs-element djs-shape" data-element-id="SequenceFlow_0x4vp34_label" transform="translate(667 159)" style="display:none"><rect width="90" height="12" x="0" y="0" class="djs-hit" style="fill:none;stroke-opacity:0;stroke:#fff;stroke-width:15px"/><rect width="102" height="24" x="-6" y="-6" class="djs-outline" style="fill:none"/></g></g><g class="djs-group"><g class="djs-element djs-shape" data-element-id="SequenceFlow_1e6hdeg_label" transform="translate(400 159)" style="display:none"><rect width="90" height="12" x="0" y="0" class="djs-hit" style="fill:none;stroke-opacity:0;stroke:#fff;stroke-width:15px"/><rect width="102" height="24" x="-6" y="-6" class="djs-outline" style="fill:none"/></g></g><g class="djs-group"><g class="djs-element djs-connection" data-element-id="SequenceFlow_1e6hdeg" style="display:block"><g class="djs-visual"><path d="m 428,180L462,180" style="fill:none;stroke-width:2px;stroke:#000;stroke-linejoin:round;marker-end:url(#sequenceflow-end-white-black)"/></g><polyline points="428 180 462 180" class="djs-hit" style="fill:none;stroke-opacity:0;stroke:#fff;stroke-width:15px"/><rect width="46" height="12" x="422" y="174" class="djs-outline" style="fill:none"/></g></g><g class="djs-group"><g class="djs-element djs-connection" data-element-id="SequenceFlow_0x4vp34" style="display:block"><g class="djs-visual"><path d="m 694,180L729,180" style="fill:none;stroke-width:2px;stroke:#000;stroke-linejoin:round;marker-end:url(#sequenceflow-end-white-black)"/></g><polyline points="694 180 729 180" class="djs-hit" style="fill:none;stroke-opacity:0;stroke:#fff;stroke-width:15px"/><rect width="47" height="12" x="688" y="174" class="djs-outline" style="fill:none"/></g></g><g class="djs-group"><g class="djs-element djs-connection" data-element-id="SequenceFlow_1811kcu" style="display:block"><g class="djs-visual"><path d="m 562,180L594,180" style="fill:none;stroke-width:2px;stroke:#000;stroke-linejoin:round;marker-end:url(#sequenceflow-end-white-black)"/></g><polyline points="562 180 594 180" class="djs-hit" style="fill:none;stroke-opacity:0;stroke:#fff;stroke-width:15px"/><rect width="44" height="12" x="556" y="174" class="djs-outline" style="fill:none"/></g></g></g></g><g class="djs-group"><g class="djs-element djs-shape" data-element-id="EndEvent_08zhy2j_label" transform="translate(790 192)" style="display:none"><rect width="90" height="12" x="0" y="0" class="djs-hit" style="fill:none;stroke-opacity:0;stroke:#fff;stroke-width:15px"/><rect width="102" height="24" x="-6" y="-6" class="djs-outline" style="fill:none"/></g></g><g class="djs-group"><g class="djs-element djs-shape" data-element-id="SequenceFlow_129vlnl_label" transform="translate(184 149)" style="display:none"><rect width="90" height="12" x="0" y="0" class="djs-hit" style="fill:none;stroke-opacity:0;stroke:#fff;stroke-width:15px"/><rect width="102" height="24" x="-6" y="-6" class="djs-outline" style="fill:none"/></g></g><g class="djs-group"><g class="djs-element djs-shape" data-element-id="SequenceFlow_0664zm3_label" transform="translate(311 149)" style="display:none"><rect width="90" height="12" x="0" y="0" class="djs-hit" style="fill:none;stroke-opacity:0;stroke:#fff;stroke-width:15px"/><rect width="102" height="24" x="-6" y="-6" class="djs-outline" style="fill:none"/></g></g><g class="djs-group"><g class="djs-element djs-shape" data-element-id="SequenceFlow_1h2726a_label" transform="translate(756 149)" style="display:none"><rect width="90" height="12" x="0" y="0" class="djs-hit" style="fill:none;stroke-opacity:0;stroke:#fff;stroke-width:15px"/><rect width="102" height="24" x="-6" y="-6" class="djs-outline" style="fill:none"/></g></g></g></g></svg>