<svg xmlns="http://www.w3.org/2000/svg" xmlns:xlink="http://www.w3.org/1999/xlink" width="612" height="262" version="1.1" viewBox="120 16 612 262"><defs><marker id="sequenceflow-end-white-black" markerHeight="10" markerWidth="10" orient="auto" refX="11" refY="10" viewBox="0 0 20 20"><path d="M 1 5 L 11 10 L 1 15 Z" style="fill:#000;stroke-width:1px;stroke-linecap:round;stroke-dasharray:10000,1;stroke:#000"/></marker></defs><g class="djs-group"><g class="djs-element djs-shape selected hover" data-element-id="Participant_0jf4n5b" transform="translate(126 22)" style="display:block"><g class="djs-visual"><rect width="600" height="250" x="0" y="0" rx="0" ry="0" style="stroke:#000;stroke-width:2px;fill:#fff;fill-opacity:.95"/><polyline points="30 0 30 250" style="fill:none;stroke:#000;stroke-width:2px"/></g><rect width="600" height="250" x="0" y="0" class="djs-hit" style="fill:none;stroke-opacity:0;stroke:#fff;stroke-width:15px"/><rect width="612" height="262" x="-6" y="-6" class="djs-outline" style="fill:none"/></g><g class="djs-children"><g class="djs-group"><g class="djs-element djs-shape" data-element-id="StartEvent_09in9bz" transform="translate(176 133)" style="display:block"><g class="djs-visual"><circle cx="18" cy="18" r="18" style="stroke:#000;stroke-width:2px;fill:#fff"/></g><rect width="36" height="36" x="0" y="0" class="djs-hit" style="fill:none;stroke-opacity:0;stroke:#fff;stroke-width:15px"/><rect width="48" height="48" x="-6" y="-6" class="djs-outline" style="fill:none"/></g></g><g class="djs-group"><g class="djs-element djs-shape" data-element-id="Activity_03i6maz" transform="translate(240 111)" style="display:block"><g class="djs-visual"><rect width="100" height="80" x="0" y="0" rx="10" ry="10" style="stroke:#000;stroke-width:2px;fill:#fff"/><text class="djs-label" style="font-family:Arial,sans-serif;font-size:12px;fill:#000"><tspan x="15.992" y="43.5">Activity Task</tspan></text></g><rect width="100" height="80" x="0" y="0" class="djs-hit" style="fill:none;stroke-opacity:0;stroke:#fff;stroke-width:15px"/><rect width="112" height="92" x="-6" y="-6" class="djs-outline" style="fill:none"/></g></g><g class="djs-group"><g class="djs-element djs-shape" data-element-id="Event_04w6u9w" transform="translate(392 133)" style="display:block"><g class="djs-visual"><circle cx="18" cy="18" r="18" style="stroke:#000;stroke-width:1px;fill:#fff"/><circle cx="18" cy="18" r="15" style="stroke:#000;stroke-width:1px;fill:none"/><circle cx="18" cy="18" r="11" style="stroke:#000;stroke-width:2px;fill:#fff"/><path d="M 18,18 l 2.25,-7.5 m -2.25,7.5 l 5.25,1.5" style="fill:none;stroke-width:2px;stroke:#000;stroke-linecap:square"/><path d="M 18,18 m 0,7.5 l -0,2.25" transform="rotate(0,18,18)" style="fill:none;stroke-width:1px;stroke:#000;stroke-linecap:square"/><path d="M 18,18 m 0,7.5 l -0,2.25" transform="rotate(30,18,18)" style="fill:none;stroke-width:1px;stroke:#000;stroke-linecap:square"/><path d="M 18,18 m 0,7.5 l -0,2.25" transform="rotate(60,18,18)" style="fill:none;stroke-width:1px;stroke:#000;stroke-linecap:square"/><path d="M 18,18 m 0,7.5 l -0,2.25" transform="rotate(90,18,18)" style="fill:none;stroke-width:1px;stroke:#000;stroke-linecap:square"/><path d="M 18,18 m 0,7.5 l -0,2.25" transform="rotate(120,18,18)" style="fill:none;stroke-width:1px;stroke:#000;stroke-linecap:square"/><path d="M 18,18 m 0,7.5 l -0,2.25" transform="rotate(150,18,18)" style="fill:none;stroke-width:1px;stroke:#000;stroke-linecap:square"/><path d="M 18,18 m 0,7.5 l -0,2.25" transform="rotate(180,18,18)" style="fill:none;stroke-width:1px;stroke:#000;stroke-linecap:square"/><path d="M 18,18 m 0,7.5 l -0,2.25" transform="rotate(210,18,18)" style="fill:none;stroke-width:1px;stroke:#000;stroke-linecap:square"/><path d="M 18,18 m 0,7.5 l -0,2.25" transform="rotate(240,18,18)" style="fill:none;stroke-width:1px;stroke:#000;stroke-linecap:square"/><path d="M 18,18 m 0,7.5 l -0,2.25" transform="rotate(270,18,18)" style="fill:none;stroke-width:1px;stroke:#000;stroke-linecap:square"/><path d="M 18,18 m 0,7.5 l -0,2.25" transform="rotate(300,18,18)" style="fill:none;stroke-width:1px;stroke:#000;stroke-linecap:square"/><path d="M 18,18 m 0,7.5 l -0,2.25" transform="rotate(330,18,18)" style="fill:none;stroke-width:1px;stroke:#000;stroke-linecap:square"/></g><rect width="36" height="36" x="0" y="0" class="djs-hit" style="fill:none;stroke-opacity:0;stroke:#fff;stroke-width:15px"/><rect width="48" height="48" x="-6" y="-6" class="djs-outline" style="fill:none"/></g></g><g class="djs-group"><g class="djs-element djs-shape" data-element-id="Activity_0aftsbf" transform="translate(480 111)" style="display:block"><g class="djs-visual"><rect width="100" height="80" x="0" y="0" rx="10" ry="10" style="stroke:#000;stroke-width:2px;fill:#fff"/><text class="djs-label" style="font-family:Arial,sans-serif;font-size:12px;fill:#000"><tspan x="22.828" y="43.5">User Task</tspan></text><path d="m 15,12 c 0.909,-0.845 1.594,-2.049 1.594,-3.385 0,-2.554 -1.805,-4.62199999 -4.357,-4.62199999 -2.55199998,0 -4.28799998,2.06799999 -4.28799998,4.62199999 0,1.348 0.974,2.562 1.89599998,3.405 -0.52899998,0.187 -5.669,2.097 -5.794,4.7560005 v 6.718 h 17 v -6.718 c 0,-2.2980005 -5.5279996,-4.5950005 -6.0509996,-4.7760005 zm -8,6 l 0,5.5 m 11,0 l 0,-5" style="fill:#fff;stroke-width:.5px;stroke:#000"/><path d="m 15,12 m 2.162,1.009 c 0,2.4470005 -2.158,4.4310005 -4.821,4.4310005 -2.66499998,0 -4.822,-1.981 -4.822,-4.4310005" style="fill:#fff;stroke-width:.5px;stroke:#000"/><path d="m 15,12 m -6.9,-3.80 c 0,0 2.25099998,-2.358 4.27399998,-1.177 2.024,1.181 4.221,1.537 4.124,0.965 -0.098,-0.57 -0.117,-3.79099999 -4.191,-4.13599999 -3.57499998,0.001 -4.20799998,3.36699999 -4.20699998,4.34799999 z" style="fill:#000;stroke-width:.5px;stroke:#000"/></g><rect width="100" height="80" x="0" y="0" class="djs-hit" style="fill:none;stroke-opacity:0;stroke:#fff;stroke-width:15px"/><rect width="112" height="92" x="-6" y="-6" class="djs-outline" style="fill:none"/></g></g><g class="djs-group"><g class="djs-element djs-shape" data-element-id="Event_17lwglu" transform="translate(632 133)" style="display:block"><g class="djs-visual"><circle cx="18" cy="18" r="18" style="stroke:#000;stroke-width:4px;fill:#fff"/></g><rect width="36" height="36" x="0" y="0" class="djs-hit" style="fill:none;stroke-opacity:0;stroke:#fff;stroke-width:15px"/><rect width="48" height="48" x="-6" y="-6" class="djs-outline" style="fill:none"/></g></g><g class="djs-group"><g class="djs-element djs-shape" data-element-id="StartEvent_09in9bz_label" transform="translate(183 176)" style="display:block"><g class="djs-visual"><text class="djs-label" style="font-family:Arial,sans-serif;font-size:11px"><tspan x="0" y="12">start</tspan></text></g><rect width="23" height="12" x="0" y="0" class="djs-hit" style="fill:none;stroke-opacity:0;stroke:#fff;stroke-width:15px"/><rect width="35" height="24" x="-6" y="-6" class="djs-outline" style="fill:none"/></g></g><g class="djs-group"><g class="djs-element djs-shape" data-element-id="Event_04w6u9w_label" transform="translate(365 169)" style="display:none"><rect width="90" height="20" x="0" y="0" class="djs-hit" style="fill:none;stroke-opacity:0;stroke:#fff;stroke-width:15px"/><rect width="102" height="32" x="-6" y="-6" class="djs-outline" style="fill:none"/></g></g><g class="djs-group"><g class="djs-element djs-shape" data-element-id="Event_17lwglu_label" transform="translate(641 176)" style="display:block"><g class="djs-visual"><text class="djs-label" style="font-family:Arial,sans-serif;font-size:11px"><tspan x="0" y="12">end</tspan></text></g><rect width="19" height="12" x="0" y="0" class="djs-hit" style="fill:none;stroke-opacity:0;stroke:#fff;stroke-width:15px"/><rect width="31" height="24" x="-6" y="-6" class="djs-outline" style="fill:none"/></g></g><g class="djs-group"><g class="djs-element djs-shape" data-element-id="Flow_07jc6tg_label" transform="translate(181 126)" style="display:none"><rect width="90" height="20" x="0" y="0" class="djs-hit" style="fill:none;stroke-opacity:0;stroke:#fff;stroke-width:15px"/><rect width="102" height="32" x="-6" y="-6" class="djs-outline" style="fill:none"/></g></g><g class="djs-group"><g class="djs-element djs-shape" data-element-id="Flow_1sg7v2d_label" transform="translate(321 126)" style="display:none"><rect width="90" height="20" x="0" y="0" class="djs-hit" style="fill:none;stroke-opacity:0;stroke:#fff;stroke-width:15px"/><rect width="102" height="32" x="-6" y="-6" class="djs-outline" style="fill:none"/></g></g><g class="djs-group"><g class="djs-element djs-shape" data-element-id="Flow_1gmqc6x_label" transform="translate(409 126)" style="display:none"><rect width="90" height="20" x="0" y="0" class="djs-hit" style="fill:none;stroke-opacity:0;stroke:#fff;stroke-width:15px"/><rect width="102" height="32" x="-6" y="-6" class="djs-outline" style="fill:none"/></g></g><g class="djs-group"><g class="djs-element djs-shape" data-element-id="Flow_0t1k878_label" transform="translate(561 126)" style="display:none"><rect width="90" height="20" x="0" y="0" class="djs-hit" style="fill:none;stroke-opacity:0;stroke:#fff;stroke-width:15px"/><rect width="102" height="32" x="-6" y="-6" class="djs-outline" style="fill:none"/></g></g><g class="djs-group"><g class="djs-element djs-connection" data-element-id="Flow_07jc6tg" style="display:block"><g class="djs-visual"><path d="m 212,151L240,151" style="fill:none;stroke-width:2px;stroke:#000;stroke-linejoin:round;marker-end:url(#sequenceflow-end-white-black)"/></g><polyline points="212 151 240 151" class="djs-hit" style="fill:none;stroke-opacity:0;stroke:#fff;stroke-width:15px"/><rect width="40" height="12" x="206" y="145" class="djs-outline" style="fill:none"/></g></g><g class="djs-group"><g class="djs-element djs-connection" data-element-id="Flow_1sg7v2d" style="display:block"><g class="djs-visual"><path d="m 340,151L392,151" style="fill:none;stroke-width:2px;stroke:#000;stroke-linejoin:round;marker-end:url(#sequenceflow-end-white-black)"/></g><polyline points="340 151 392 151" class="djs-hit" style="fill:none;stroke-opacity:0;stroke:#fff;stroke-width:15px"/><rect width="64" height="12" x="334" y="145" class="djs-outline" style="fill:none"/></g></g><g class="djs-group"><g class="djs-element djs-connection" data-element-id="Flow_1gmqc6x" style="display:block"><g class="djs-visual"><path d="m 428,151L480,151" style="fill:none;stroke-width:2px;stroke:#000;stroke-linejoin:round;marker-end:url(#sequenceflow-end-white-black)"/></g><polyline points="428 151 480 151" class="djs-hit" style="fill:none;stroke-opacity:0;stroke:#fff;stroke-width:15px"/><rect width="64" height="12" x="422" y="145" class="djs-outline" style="fill:none"/></g></g><g class="djs-group"><g class="djs-element djs-connection" data-element-id="Flow_0t1k878" style="display:block"><g class="djs-visual"><path d="m 580,151L632,151" style="fill:none;stroke-width:2px;stroke:#000;stroke-linejoin:round;marker-end:url(#sequenceflow-end-white-black)"/></g><polyline points="580 151 632 151" class="djs-hit" style="fill:none;stroke-opacity:0;stroke:#fff;stroke-width:15px"/><rect width="64" height="12" x="574" y="145" class="djs-outline" style="fill:none"/></g></g></g></g></svg>