<svg xmlns="http://www.w3.org/2000/svg" xmlns:xlink="http://www.w3.org/1999/xlink" width="448" height="200" version="1.1" viewBox="146 76 448 200"><defs><marker id="sequenceflow-end-white-black-a94giyhlriyyfnxb1h25og10a" markerHeight="10" markerWidth="10" orient="auto" refX="11" refY="10" viewBox="0 0 20 20"><path d="M 1 5 L 11 10 L 1 15 Z" style="fill:#000;stroke-width:1px;stroke-linecap:round;stroke-dasharray:10000,1;stroke:#000"/></marker><marker id="association-end-white-black-a94giyhlriyyfnxb1h25og10a" markerHeight="10" markerWidth="10" orient="auto" refX="12" refY="10" viewBox="0 0 20 20"><path d="M 1 5 L 11 10 L 1 15" style="fill:none;stroke-width:1.5px;stroke-linecap:round;stroke-dasharray:10000,1;stroke:#000"/></marker></defs><g class="djs-group"><g class="djs-element djs-connection" data-element-id="Flow_1snh5qq" style="display:block"><g class="djs-visual"><path d="m 188,230L240,230" style="fill:none;stroke-width:2px;stroke:#000;stroke-linejoin:round;marker-end:url(#sequenceflow-end-white-black-a94giyhlriyyfnxb1h25og10a)"/></g><polyline points="188 230 240 230" class="djs-hit djs-hit-stroke" style="fill:none;stroke-opacity:0;stroke:#fff;stroke-width:15px"/><rect width="64" height="12" x="182" y="224" class="djs-outline" style="fill:none"/></g></g><g class="djs-group"><g class="djs-element djs-connection" data-element-id="Flow_1rhvzwa" style="display:block"><g class="djs-visual"><path d="m 340,230L400,230" style="fill:none;stroke-width:2px;stroke:#000;stroke-linejoin:round;marker-end:url(#sequenceflow-end-white-black-a94giyhlriyyfnxb1h25og10a)"/></g><polyline points="340 230 400 230" class="djs-hit djs-hit-stroke" style="fill:none;stroke-opacity:0;stroke:#fff;stroke-width:15px"/><rect width="72" height="12" x="334" y="224" class="djs-outline" style="fill:none"/></g></g><g class="djs-group"><g class="djs-element djs-connection" data-element-id="Flow_0ogj99q" style="display:block"><g class="djs-visual"><path d="m 500,230L552,230" style="fill:none;stroke-width:2px;stroke:#000;stroke-linejoin:round;marker-end:url(#sequenceflow-end-white-black-a94giyhlriyyfnxb1h25og10a)"/></g><polyline points="500 230 552 230" class="djs-hit djs-hit-stroke" style="fill:none;stroke-opacity:0;stroke:#fff;stroke-width:15px"/><rect width="64" height="12" x="494" y="224" class="djs-outline" style="fill:none"/></g></g><g class="djs-group"><g class="djs-element djs-connection" data-element-id="Flow_0yfuji7" style="display:block"><g class="djs-visual"><path d="m 290,118L290,190" style="fill:none;stroke-width:2px;stroke:#000;stroke-linejoin:round;marker-end:url(#sequenceflow-end-white-black-a94giyhlriyyfnxb1h25og10a)"/></g><polyline points="290 118 290 190" class="djs-hit djs-hit-stroke" style="fill:none;stroke-opacity:0;stroke:#fff;stroke-width:15px"/><rect width="12" height="84" x="284" y="112" class="djs-outline" style="fill:none"/></g></g><g class="djs-group"><g class="djs-element djs-shape" data-element-id="Event_1pl34mf" transform="matrix(1 0 0 1 152 212)" style="display:block"><g class="djs-visual"><circle cx="18" cy="18" r="18" style="stroke:#000;stroke-width:2px;fill:#fff;fill-opacity:.95"/></g><rect width="36" height="36" x="0" y="0" class="djs-hit djs-hit-all" style="fill:none;stroke-opacity:0;stroke:#fff;stroke-width:15px"/><rect width="48" height="48" x="-6" y="-6" class="djs-outline" style="fill:none"/></g></g><g class="djs-group"><g class="djs-element djs-shape" data-element-id="Activity_098hsbj" transform="matrix(1 0 0 1 240 190)" style="display:block"><g class="djs-visual"><rect width="100" height="80" x="0" y="0" rx="10" ry="10" style="stroke:#000;stroke-width:2px;fill:#fff;fill-opacity:.95"/><text class="djs-label" lineHeight="1.2" style="font-family:Arial,sans-serif;font-size:12px;font-weight:400;fill:#000"><tspan x="22.828" y="43.6">User Task</tspan></text><path d="m 15,12 c 0.909,-0.845 1.594,-2.049 1.594,-3.385 0,-2.554 -1.805,-4.62199999 -4.357,-4.62199999 -2.55199998,0 -4.28799998,2.06799999 -4.28799998,4.62199999 0,1.348 0.974,2.562 1.89599998,3.405 -0.52899998,0.187 -5.669,2.097 -5.794,4.7560005 v 6.718 h 17 v -6.718 c 0,-2.2980005 -5.5279996,-4.5950005 -6.0509996,-4.7760005 zm -8,6 l 0,5.5 m 11,0 l 0,-5" style="fill:#fff;stroke-width:.5px;stroke:#000"/><path d="m 15,12 m 2.162,1.009 c 0,2.4470005 -2.158,4.4310005 -4.821,4.4310005 -2.66499998,0 -4.822,-1.981 -4.822,-4.4310005" style="fill:#fff;stroke-width:.5px;stroke:#000"/><path d="m 15,12 m -6.9,-3.80 c 0,0 2.25099998,-2.358 4.27399998,-1.177 2.024,1.181 4.221,1.537 4.124,0.965 -0.098,-0.57 -0.117,-3.79099999 -4.191,-4.13599999 -3.57499998,0.001 -4.20799998,3.36699999 -4.20699998,4.34799999 z" style="fill:#000;stroke-width:.5px;stroke:#000"/></g><rect width="100" height="80" x="0" y="0" class="djs-hit djs-hit-all" style="fill:none;stroke-opacity:0;stroke:#fff;stroke-width:15px"/><rect width="112" height="92" x="-6" y="-6" class="djs-outline" style="fill:none"/></g></g><g class="djs-group"><g class="djs-element djs-shape" data-element-id="Activity_0j867bq" transform="matrix(1 0 0 1 400 190)" style="display:block"><g class="djs-visual"><rect width="100" height="80" x="0" y="0" rx="10" ry="10" style="stroke:#000;stroke-width:2px;fill:#fff;fill-opacity:.95"/><text class="djs-label" lineHeight="1.2" style="font-family:Arial,sans-serif;font-size:12px;font-weight:400;fill:#000"><tspan x="13.813" y="43.6">Receive Task</tspan></text><path d="m 6.3,5.6000000000000005 l 0,12.6 l 18.900000000000002,0 l 0,-12.6 z l 9.450000000000001,5.4 l 9.450000000000001,-5.4" style="fill:#fff;stroke-width:1px;stroke:#000"/></g><rect width="100" height="80" x="0" y="0" class="djs-hit djs-hit-all" style="fill:none;stroke-opacity:0;stroke:#fff;stroke-width:15px"/><rect width="112" height="92" x="-6" y="-6" class="djs-outline" style="fill:none"/></g></g><g class="djs-group"><g class="djs-element djs-shape" data-element-id="Event_1bhkzal" transform="matrix(1 0 0 1 552 212)" style="display:block"><g class="djs-visual"><circle cx="18" cy="18" r="18" style="stroke:#000;stroke-width:4px;fill:#fff;fill-opacity:.95"/></g><rect width="36" height="36" x="0" y="0" class="djs-hit djs-hit-all" style="fill:none;stroke-opacity:0;stroke:#fff;stroke-width:15px"/><rect width="48" height="48" x="-6" y="-6" class="djs-outline" style="fill:none"/></g></g><g class="djs-group"><g class="djs-element djs-shape" data-element-id="Event_1pl34mf_label" transform="matrix(1 0 0 1 158 255)" style="display:block"><g class="djs-visual"><text class="djs-label" lineHeight="1.2" style="font-family:Arial,sans-serif;font-size:11px;font-weight:400;fill:#000"><tspan x="0" y="9.9">Start</tspan></text></g><rect width="25" height="14" x="0" y="0" class="djs-hit djs-hit-all" style="fill:none;stroke-opacity:0;stroke:#fff;stroke-width:15px"/><rect width="37" height="26" x="-6" y="-6" class="djs-outline" style="fill:none"/></g></g><g class="djs-group"><g class="djs-element djs-shape" data-element-id="Event_1bhkzal_label" transform="matrix(1 0 0 1 560 255)" style="display:block"><g class="djs-visual"><text class="djs-label" lineHeight="1.2" style="font-family:Arial,sans-serif;font-size:11px;font-weight:400;fill:#000"><tspan x="0" y="9.9">End</tspan></text></g><rect width="20" height="14" x="0" y="0" class="djs-hit djs-hit-all" style="fill:none;stroke-opacity:0;stroke:#fff;stroke-width:15px"/><rect width="32" height="26" x="-6" y="-6" class="djs-outline" style="fill:none"/></g></g><g class="djs-group"><g class="djs-element djs-shape" data-element-id="Event_1altgjt" transform="matrix(1 0 0 1 272 82)" style="display:block"><g class="djs-visual"><circle cx="18" cy="18" r="18" style="stroke:#000;stroke-width:1px;fill:#fff;fill-opacity:.95"/><circle cx="18" cy="18" r="15" style="stroke:#000;stroke-width:1px;fill:none"/><circle cx="18" cy="18" r="11" style="stroke:#000;stroke-width:2px;fill:#fff"/><path d="M 18,18 l 2.25,-7.5 m -2.25,7.5 l 5.25,1.5" style="fill:none;stroke-width:2px;stroke:#000;stroke-linecap:square"/><path d="M 18,18 m 0,7.5 l -0,2.25" transform="rotate(0,18,18)" style="fill:none;stroke-width:1px;stroke:#000;stroke-linecap:square"/><path d="M 18,18 m 0,7.5 l -0,2.25" transform="rotate(30,18,18)" style="fill:none;stroke-width:1px;stroke:#000;stroke-linecap:square"/><path d="M 18,18 m 0,7.5 l -0,2.25" transform="rotate(60,18,18)" style="fill:none;stroke-width:1px;stroke:#000;stroke-linecap:square"/><path d="M 18,18 m 0,7.5 l -0,2.25" transform="rotate(90,18,18)" style="fill:none;stroke-width:1px;stroke:#000;stroke-linecap:square"/><path d="M 18,18 m 0,7.5 l -0,2.25" transform="rotate(120,18,18)" style="fill:none;stroke-width:1px;stroke:#000;stroke-linecap:square"/><path d="M 18,18 m 0,7.5 l -0,2.25" transform="rotate(150,18,18)" style="fill:none;stroke-width:1px;stroke:#000;stroke-linecap:square"/><path d="M 18,18 m 0,7.5 l -0,2.25" transform="rotate(180,18,18)" style="fill:none;stroke-width:1px;stroke:#000;stroke-linecap:square"/><path d="M 18,18 m 0,7.5 l -0,2.25" transform="rotate(210,18,18)" style="fill:none;stroke-width:1px;stroke:#000;stroke-linecap:square"/><path d="M 18,18 m 0,7.5 l -0,2.25" transform="rotate(240,18,18)" style="fill:none;stroke-width:1px;stroke:#000;stroke-linecap:square"/><path d="M 18,18 m 0,7.5 l -0,2.25" transform="rotate(270,18,18)" style="fill:none;stroke-width:1px;stroke:#000;stroke-linecap:square"/><path d="M 18,18 m 0,7.5 l -0,2.25" transform="rotate(300,18,18)" style="fill:none;stroke-width:1px;stroke:#000;stroke-linecap:square"/><path d="M 18,18 m 0,7.5 l -0,2.25" transform="rotate(330,18,18)" style="fill:none;stroke-width:1px;stroke:#000;stroke-linecap:square"/></g><rect width="36" height="36" x="0" y="0" class="djs-hit djs-hit-all" style="fill:none;stroke-opacity:0;stroke:#fff;stroke-width:15px"/><rect width="48" height="48" x="-6" y="-6" class="djs-outline" style="fill:none"/></g></g><g class="djs-group"><g class="djs-element djs-shape selected" data-element-id="Event_1altgjt_label" transform="matrix(1 0 0 1 320 93)" style="display:block"><g class="djs-visual"><text class="djs-label" lineHeight="1.2" style="font-family:Arial,sans-serif;font-size:11px;font-weight:400;fill:#000"><tspan x="0" y="9.9">Reminder Timer</tspan></text></g><rect width="80" height="14" x="0" y="0" class="djs-hit djs-hit-all" style="fill:none;stroke-opacity:0;stroke:#fff;stroke-width:15px"/><rect width="92" height="26" x="-6" y="-6" class="djs-outline" style="fill:none"/></g></g></svg>